<mxfile host="Electron" agent="Mozilla/5.0 (Windows NT 10.0; Win64; x64) AppleWebKit/537.36 (KHTML, like Gecko) draw.io/24.7.5 Chrome/126.0.6478.183 Electron/31.3.0 Safari/537.36" version="24.7.5">
  <diagram name="PÃ¡gina-1" id="GA8wOplPFJMubPqlHFjA">
    <mxGraphModel dx="880" dy="532" grid="1" gridSize="10" guides="1" tooltips="1" connect="1" arrows="1" fold="1" page="1" pageScale="1" pageWidth="827" pageHeight="1169" math="0" shadow="0">
      <root>
        <mxCell id="0" />
        <mxCell id="1" parent="0" />
        <mxCell id="3bqalPumVxIQ43W40vRN-2" value="LavaYa" style="swimlane;whiteSpace=wrap;html=1;" vertex="1" parent="1">
          <mxGeometry x="284" y="60" width="260" height="460" as="geometry" />
        </mxCell>
        <mxCell id="3bqalPumVxIQ43W40vRN-3" value="Iniciar Secion" style="ellipse;whiteSpace=wrap;html=1;" vertex="1" parent="3bqalPumVxIQ43W40vRN-2">
          <mxGeometry x="66" y="80" width="120" height="40" as="geometry" />
        </mxCell>
        <mxCell id="3bqalPumVxIQ43W40vRN-4" value="Crear cuenta" style="ellipse;whiteSpace=wrap;html=1;" vertex="1" parent="3bqalPumVxIQ43W40vRN-2">
          <mxGeometry x="66" y="30" width="120" height="40" as="geometry" />
        </mxCell>
        <mxCell id="3bqalPumVxIQ43W40vRN-5" value="Crear Usuario" style="ellipse;whiteSpace=wrap;html=1;" vertex="1" parent="3bqalPumVxIQ43W40vRN-2">
          <mxGeometry x="66" y="130" width="120" height="40" as="geometry" />
        </mxCell>
        <mxCell id="3bqalPumVxIQ43W40vRN-7" value="Agendar lavadora" style="ellipse;whiteSpace=wrap;html=1;" vertex="1" parent="3bqalPumVxIQ43W40vRN-2">
          <mxGeometry x="66" y="290" width="120" height="40" as="geometry" />
        </mxCell>
        <mxCell id="3bqalPumVxIQ43W40vRN-8" value="Agregar lavadora" style="ellipse;whiteSpace=wrap;html=1;" vertex="1" parent="3bqalPumVxIQ43W40vRN-2">
          <mxGeometry x="66" y="350" width="120" height="40" as="geometry" />
        </mxCell>
        <mxCell id="3bqalPumVxIQ43W40vRN-11" value="Quitar lavadora" style="ellipse;whiteSpace=wrap;html=1;" vertex="1" parent="3bqalPumVxIQ43W40vRN-2">
          <mxGeometry x="66" y="410" width="120" height="40" as="geometry" />
        </mxCell>
        <mxCell id="3bqalPumVxIQ43W40vRN-12" value="Suspender pedido" style="ellipse;whiteSpace=wrap;html=1;" vertex="1" parent="3bqalPumVxIQ43W40vRN-2">
          <mxGeometry x="70" y="230" width="120" height="40" as="geometry" />
        </mxCell>
        <mxCell id="3bqalPumVxIQ43W40vRN-6" value="Alquilar lavadora" style="ellipse;whiteSpace=wrap;html=1;" vertex="1" parent="1">
          <mxGeometry x="350" y="240" width="120" height="40" as="geometry" />
        </mxCell>
        <mxCell id="3bqalPumVxIQ43W40vRN-9" value="Gerente" style="shape=umlActor;verticalLabelPosition=bottom;verticalAlign=top;html=1;outlineConnect=0;" vertex="1" parent="1">
          <mxGeometry x="140" y="170" width="70" height="130" as="geometry" />
        </mxCell>
        <mxCell id="3bqalPumVxIQ43W40vRN-10" value="Cliente" style="shape=umlActor;verticalLabelPosition=bottom;verticalAlign=top;html=1;outlineConnect=0;" vertex="1" parent="1">
          <mxGeometry x="600" y="170" width="70" height="130" as="geometry" />
        </mxCell>
        <mxCell id="3bqalPumVxIQ43W40vRN-14" value="" style="endArrow=none;html=1;rounded=0;exitX=0.5;exitY=0.5;exitDx=0;exitDy=0;exitPerimeter=0;entryX=0;entryY=0.5;entryDx=0;entryDy=0;" edge="1" parent="1" source="3bqalPumVxIQ43W40vRN-9" target="3bqalPumVxIQ43W40vRN-3">
          <mxGeometry width="50" height="50" relative="1" as="geometry">
            <mxPoint x="390" y="300" as="sourcePoint" />
            <mxPoint x="440" y="250" as="targetPoint" />
          </mxGeometry>
        </mxCell>
        <mxCell id="3bqalPumVxIQ43W40vRN-15" value="" style="endArrow=none;html=1;rounded=0;exitX=0.5;exitY=0.5;exitDx=0;exitDy=0;exitPerimeter=0;entryX=0;entryY=0.5;entryDx=0;entryDy=0;" edge="1" parent="1" source="3bqalPumVxIQ43W40vRN-9" target="3bqalPumVxIQ43W40vRN-5">
          <mxGeometry width="50" height="50" relative="1" as="geometry">
            <mxPoint x="390" y="300" as="sourcePoint" />
            <mxPoint x="440" y="250" as="targetPoint" />
          </mxGeometry>
        </mxCell>
        <mxCell id="3bqalPumVxIQ43W40vRN-16" value="" style="endArrow=none;html=1;rounded=0;exitX=0.5;exitY=0.5;exitDx=0;exitDy=0;exitPerimeter=0;entryX=0;entryY=0.5;entryDx=0;entryDy=0;" edge="1" parent="1" source="3bqalPumVxIQ43W40vRN-9" target="3bqalPumVxIQ43W40vRN-7">
          <mxGeometry width="50" height="50" relative="1" as="geometry">
            <mxPoint x="390" y="300" as="sourcePoint" />
            <mxPoint x="440" y="250" as="targetPoint" />
          </mxGeometry>
        </mxCell>
        <mxCell id="3bqalPumVxIQ43W40vRN-17" value="" style="endArrow=none;html=1;rounded=0;exitX=0.5;exitY=0.5;exitDx=0;exitDy=0;exitPerimeter=0;entryX=0;entryY=0.5;entryDx=0;entryDy=0;" edge="1" parent="1" source="3bqalPumVxIQ43W40vRN-9" target="3bqalPumVxIQ43W40vRN-8">
          <mxGeometry width="50" height="50" relative="1" as="geometry">
            <mxPoint x="390" y="300" as="sourcePoint" />
            <mxPoint x="440" y="250" as="targetPoint" />
          </mxGeometry>
        </mxCell>
        <mxCell id="3bqalPumVxIQ43W40vRN-18" value="" style="endArrow=none;html=1;rounded=0;exitX=0.5;exitY=0.5;exitDx=0;exitDy=0;exitPerimeter=0;entryX=0;entryY=0.5;entryDx=0;entryDy=0;" edge="1" parent="1" source="3bqalPumVxIQ43W40vRN-9" target="3bqalPumVxIQ43W40vRN-11">
          <mxGeometry width="50" height="50" relative="1" as="geometry">
            <mxPoint x="390" y="300" as="sourcePoint" />
            <mxPoint x="440" y="250" as="targetPoint" />
          </mxGeometry>
        </mxCell>
        <mxCell id="3bqalPumVxIQ43W40vRN-19" value="" style="endArrow=none;html=1;rounded=0;entryX=1;entryY=0.5;entryDx=0;entryDy=0;exitX=0.5;exitY=0.5;exitDx=0;exitDy=0;exitPerimeter=0;" edge="1" parent="1" source="3bqalPumVxIQ43W40vRN-10" target="3bqalPumVxIQ43W40vRN-4">
          <mxGeometry width="50" height="50" relative="1" as="geometry">
            <mxPoint x="390" y="300" as="sourcePoint" />
            <mxPoint x="440" y="250" as="targetPoint" />
          </mxGeometry>
        </mxCell>
        <mxCell id="3bqalPumVxIQ43W40vRN-20" value="" style="endArrow=none;html=1;rounded=0;entryX=0.5;entryY=0.5;entryDx=0;entryDy=0;entryPerimeter=0;exitX=1;exitY=0.5;exitDx=0;exitDy=0;" edge="1" parent="1" source="3bqalPumVxIQ43W40vRN-3" target="3bqalPumVxIQ43W40vRN-10">
          <mxGeometry width="50" height="50" relative="1" as="geometry">
            <mxPoint x="390" y="300" as="sourcePoint" />
            <mxPoint x="440" y="250" as="targetPoint" />
          </mxGeometry>
        </mxCell>
        <mxCell id="3bqalPumVxIQ43W40vRN-21" value="" style="endArrow=none;html=1;rounded=0;entryX=0.5;entryY=0.5;entryDx=0;entryDy=0;entryPerimeter=0;exitX=1;exitY=0.5;exitDx=0;exitDy=0;" edge="1" parent="1" source="3bqalPumVxIQ43W40vRN-6" target="3bqalPumVxIQ43W40vRN-10">
          <mxGeometry width="50" height="50" relative="1" as="geometry">
            <mxPoint x="390" y="300" as="sourcePoint" />
            <mxPoint x="440" y="250" as="targetPoint" />
          </mxGeometry>
        </mxCell>
        <mxCell id="3bqalPumVxIQ43W40vRN-22" value="" style="endArrow=none;html=1;rounded=0;entryX=0.5;entryY=0.5;entryDx=0;entryDy=0;entryPerimeter=0;exitX=1;exitY=0.5;exitDx=0;exitDy=0;" edge="1" parent="1" source="3bqalPumVxIQ43W40vRN-12" target="3bqalPumVxIQ43W40vRN-10">
          <mxGeometry width="50" height="50" relative="1" as="geometry">
            <mxPoint x="390" y="300" as="sourcePoint" />
            <mxPoint x="440" y="250" as="targetPoint" />
          </mxGeometry>
        </mxCell>
        <mxCell id="3bqalPumVxIQ43W40vRN-23" value="" style="endArrow=none;html=1;rounded=0;entryX=0.5;entryY=0.5;entryDx=0;entryDy=0;entryPerimeter=0;exitX=1;exitY=0.5;exitDx=0;exitDy=0;" edge="1" parent="1" source="3bqalPumVxIQ43W40vRN-7" target="3bqalPumVxIQ43W40vRN-10">
          <mxGeometry width="50" height="50" relative="1" as="geometry">
            <mxPoint x="390" y="300" as="sourcePoint" />
            <mxPoint x="440" y="250" as="targetPoint" />
          </mxGeometry>
        </mxCell>
      </root>
    </mxGraphModel>
  </diagram>
</mxfile>
